<svg width="56" height="56" viewBox="0 0 56 56" fill="none" xmlns="http://www.w3.org/2000/svg">
<g clip-path="url(#clip0_673_1095)">
<path d="M27.8238 55.6476C43.1904 55.6476 55.6476 43.1904 55.6476 27.8238C55.6476 12.4571 43.1904 0 27.8238 0C12.4571 0 0 12.4571 0 27.8238C0 43.1904 12.4571 55.6476 27.8238 55.6476Z" fill="url(#paint0_linear_673_1095)"/>
<path d="M27.2916 34.7961C26.4156 34.7961 25.5456 34.6821 24.6816 34.4541C23.8176 34.2141 23.0856 33.8781 22.4856 33.4461L23.6196 31.2141C24.0996 31.5621 24.6576 31.8381 25.2936 32.0421C25.9296 32.2461 26.5716 32.3481 27.2196 32.3481C27.9516 32.3481 28.5276 32.2041 28.9476 31.9161C29.3676 31.6281 29.5776 31.2321 29.5776 30.7281C29.5776 30.2481 29.3916 29.8701 29.0196 29.5941C28.6476 29.3181 28.0476 29.1801 27.2196 29.1801H25.8876V27.2541L29.3976 23.2761L29.7216 24.3201H23.1156V21.9801H31.9356V23.8701L28.4436 27.8481L26.9676 27.0021H27.8136C29.3616 27.0021 30.5316 27.3501 31.3236 28.0461C32.1156 28.7421 32.5116 29.6361 32.5116 30.7281C32.5116 31.4361 32.3256 32.1021 31.9536 32.7261C31.5816 33.3381 31.0116 33.8361 30.2436 34.2201C29.4756 34.6041 28.4916 34.7961 27.2916 34.7961Z" fill="white"/>
</g>
<defs>
<linearGradient id="paint0_linear_673_1095" x1="0" y1="27.8238" x2="55.6611" y2="27.8238" gradientUnits="userSpaceOnUse">
<stop stop-color="#7A68EA"/>
<stop offset="1" stop-color="#C283AA"/>
</linearGradient>
<clipPath id="clip0_673_1095">
<rect width="55.6611" height="55.6611" fill="white"/>
</clipPath>
</defs>
</svg>
