<svg width="56" height="56" viewBox="0 0 56 56" fill="none" xmlns="http://www.w3.org/2000/svg">
<g clip-path="url(#clip0_2125_445)">
<path d="M27.8238 55.6476C43.1904 55.6476 55.6476 43.1904 55.6476 27.8238C55.6476 12.4571 43.1904 0 27.8238 0C12.4571 0 0 12.4571 0 27.8238C0 43.1904 12.4571 55.6476 27.8238 55.6476Z" fill="url(#paint0_linear_2125_445)"/>
<path d="M21.3761 31.9341V29.9721L27.3161 21.9801H30.3761L24.5621 29.9721L23.1401 29.5581H33.0581V31.9341H21.3761ZM28.1621 34.5801V31.9341L28.2521 29.5581V27.2001H31.0061V34.5801H28.1621Z" fill="white"/>
</g>
<g clip-path="url(#clip1_2125_445)">
<path d="M27.8238 55.6476C43.1904 55.6476 55.6476 43.1904 55.6476 27.8238C55.6476 12.4571 43.1904 0 27.8238 0C12.4571 0 0 12.4571 0 27.8238C0 43.1904 12.4571 55.6476 27.8238 55.6476Z" fill="url(#paint1_linear_2125_445)"/>
<path d="M21.3761 31.9341V29.9721L27.3161 21.9801H30.3761L24.5621 29.9721L23.1401 29.5581H33.0581V31.9341H21.3761ZM28.1621 34.5801V31.9341L28.2521 29.5581V27.2001H31.0061V34.5801H28.1621Z" fill="white"/>
</g>
<defs>
<linearGradient id="paint0_linear_2125_445" x1="0" y1="27.8238" x2="55.6611" y2="27.8238" gradientUnits="userSpaceOnUse">
<stop stop-color="#7A68EA"/>
<stop offset="1" stop-color="#C283AA"/>
</linearGradient>
<linearGradient id="paint1_linear_2125_445" x1="0" y1="27.8238" x2="55.6611" y2="27.8238" gradientUnits="userSpaceOnUse">
<stop stop-color="#7A68EA"/>
<stop offset="1" stop-color="#C283AA"/>
</linearGradient>
<clipPath id="clip0_2125_445">
<rect width="55.6611" height="55.6611" fill="white"/>
</clipPath>
<clipPath id="clip1_2125_445">
<rect width="55.6611" height="55.6611" fill="white"/>
</clipPath>
</defs>
</svg>
