<svg width="56" height="56" viewBox="0 0 56 56" fill="none" xmlns="http://www.w3.org/2000/svg">
<g clip-path="url(#clip0_673_1091)">
<path d="M27.8238 55.6476C43.1904 55.6476 55.6476 43.1904 55.6476 27.8238C55.6476 12.4571 43.1904 0 27.8238 0C12.4571 0 0 12.4571 0 27.8238C0 43.1904 12.4571 55.6476 27.8238 55.6476Z" fill="url(#paint0_linear_673_1091)"/>
<path d="M26.4125 33.8174H31.8305V36.1934H22.3085V34.3034L27.1685 29.7134C28.2845 28.6514 28.4825 28.0034 28.4825 27.3914C28.4825 26.4014 27.7985 25.8254 26.4665 25.8254C25.3865 25.8254 24.4685 26.2394 23.8565 27.0854L21.7325 25.7174C22.7045 24.2954 24.4685 23.3774 26.7365 23.3774C29.5445 23.3774 31.4165 24.8174 31.4165 27.1034C31.4165 28.3274 31.0745 29.4434 29.3105 31.0814L26.4125 33.8174Z" fill="white"/>
</g>
<defs>
<linearGradient id="paint0_linear_673_1091" x1="0" y1="27.8238" x2="55.6611" y2="27.8238" gradientUnits="userSpaceOnUse">
<stop stop-color="#7A68EA"/>
<stop offset="1" stop-color="#C283AA"/>
</linearGradient>
<clipPath id="clip0_673_1091">
<rect width="55.6611" height="55.6611" fill="white"/>
</clipPath>
</defs>
</svg>
