<svg xmlns="http://www.w3.org/2000/svg" xmlns:xlink="http://www.w3.org/1999/xlink" width="40" zoomAndPan="magnify" viewBox="0 0 30 30.000001" height="40" preserveAspectRatio="xMidYMid meet" version="1.0"><defs><clipPath id="7d1dedcbb6"><path d="M 0.484375 5.679688 L 29.515625 5.679688 L 29.515625 23.097656 L 0.484375 23.097656 Z M 0.484375 5.679688 " clip-rule="nonzero"/></clipPath></defs><path fill="#100f0d" d="M 18.378906 15.742188 C 17.050781 15.78125 15.800781 16.109375 14.855469 16.871094 C 13.90625 16.109375 12.660156 15.78125 11.328125 15.742188 L 11.328125 13.210938 L 14.796875 14.128906 C 14.835938 14.136719 14.875 14.136719 14.910156 14.128906 L 18.378906 13.210938 Z M 22.445312 13.253906 C 22.445312 13.128906 22.355469 13.027344 22.242188 12.996094 L 22.242188 12.183594 C 22.417969 12.097656 22.40625 11.828125 22.199219 11.773438 L 14.910156 9.847656 C 14.875 9.835938 14.835938 9.835938 14.796875 9.847656 L 7.507812 11.773438 C 7.285156 11.832031 7.285156 12.144531 7.507812 12.203125 L 10.324219 12.945312 L 10.324219 16.789062 C 10.585938 16.75 10.859375 16.726562 11.136719 16.726562 C 12.691406 16.726562 14.0625 17.269531 14.847656 18.277344 L 14.855469 18.28125 L 14.859375 18.277344 C 15.648438 17.269531 17.015625 16.726562 18.574219 16.726562 C 18.847656 16.726562 19.121094 16.75 19.382812 16.789062 L 19.382812 12.945312 L 22.105469 12.226562 L 22.105469 12.996094 C 21.988281 13.027344 21.902344 13.128906 21.902344 13.253906 C 21.902344 13.347656 21.949219 13.429688 22.023438 13.476562 C 21.941406 13.789062 21.707031 14.707031 21.707031 15.46875 C 21.707031 15.46875 21.804688 15.621094 22.171875 15.640625 C 22.539062 15.621094 22.636719 15.46875 22.636719 15.46875 C 22.636719 14.707031 22.40625 13.789062 22.320312 13.476562 C 22.394531 13.429688 22.445312 13.347656 22.445312 13.253906 " fill-opacity="1" fill-rule="nonzero"/><g clip-path="url(#7d1dedcbb6)"><path fill="#100f0d" d="M 24.75 20.625 L 17.488281 20.625 C 17.46875 21.230469 16.953125 21.71875 16.328125 21.71875 L 13.691406 21.71875 C 13.0625 21.71875 12.558594 21.230469 12.53125 20.625 L 5.230469 20.625 L 5.230469 7.496094 L 24.75 7.496094 Z M 26.617188 20.648438 C 26.632812 20.546875 26.640625 20.441406 26.640625 20.332031 L 26.640625 7.796875 C 26.640625 6.628906 25.742188 5.679688 24.628906 5.679688 L 5.339844 5.679688 C 4.234375 5.679688 3.339844 6.628906 3.339844 7.796875 L 3.339844 20.332031 C 3.339844 20.441406 3.347656 20.546875 3.355469 20.648438 L 0.503906 20.648438 L 0.503906 20.980469 C 0.503906 22.160156 1.398438 23.097656 2.503906 23.097656 L 27.472656 23.097656 C 28.578125 23.097656 29.472656 22.160156 29.472656 20.980469 L 29.472656 20.648438 L 26.617188 20.648438 " fill-opacity="1" fill-rule="nonzero"/></g></svg>