<svg xmlns="http://www.w3.org/2000/svg" xmlns:xlink="http://www.w3.org/1999/xlink" width="40" zoomAndPan="magnify" viewBox="0 0 30 30.000001" height="40" preserveAspectRatio="xMidYMid meet" version="1.0"><defs><clipPath id="32bdcd1bff"><path d="M 0.484375 3.265625 L 12 3.265625 L 12 18 L 0.484375 18 Z M 0.484375 3.265625 " clip-rule="nonzero"/></clipPath><clipPath id="9939d13b40"><path d="M 13 3.265625 L 17 3.265625 L 17 7 L 13 7 Z M 13 3.265625 " clip-rule="nonzero"/></clipPath><clipPath id="8068990b30"><path d="M 12 18 L 29.515625 18 L 29.515625 25.765625 L 12 25.765625 Z M 12 18 " clip-rule="nonzero"/></clipPath><clipPath id="7338384066"><path d="M 11 6 L 29.515625 6 L 29.515625 17 L 11 17 Z M 11 6 " clip-rule="nonzero"/></clipPath><clipPath id="1f16c82bee"><path d="M 8 3.265625 L 14 3.265625 L 14 9 L 8 9 Z M 8 3.265625 " clip-rule="nonzero"/></clipPath></defs><g clip-path="url(#32bdcd1bff)"><path fill="#000000" d="M 1.949219 3.28125 C 1.144531 3.28125 0.492188 3.933594 0.492188 4.738281 L 0.492188 13.625 C 0.492188 14.433594 1.144531 15.082031 1.949219 15.082031 L 7.273438 15.082031 L 7.273438 15.816406 C 6.464844 15.816406 5.804688 16.636719 5.804688 17.238281 L 5.804688 17.734375 C 5.804688 17.878906 5.882812 17.949219 6.015625 17.949219 L 11.167969 17.949219 C 11.300781 17.949219 11.382812 17.878906 11.382812 17.734375 L 11.382812 17.238281 C 11.382812 16.636719 10.722656 15.816406 9.914062 15.816406 L 9.914062 15.082031 L 11.109375 15.082031 C 11.0625 14.914062 11.023438 14.742188 10.996094 14.5625 C 10.890625 13.847656 10.933594 13.144531 11.113281 12.523438 L 2.777344 12.523438 C 2.195312 12.523438 2.109375 12.164062 2.109375 11.722656 L 2.109375 5.304688 C 2.109375 4.859375 2.148438 4.5 2.726562 4.5 L 7.605469 4.5 C 8.222656 4.5 8.53125 3.28125 8.058594 3.28125 Z M 1.949219 3.28125 " fill-opacity="1" fill-rule="evenodd"/></g><g clip-path="url(#9939d13b40)"><path fill="#000000" d="M 13.738281 3.28125 C 13.234375 3.28125 13.667969 4.5 14.292969 4.5 L 14.457031 4.5 C 15.039062 4.5 15.074219 4.859375 15.074219 5.304688 L 15.074219 6.152344 C 15.074219 7.257812 16.691406 6.875 16.691406 5.765625 L 16.691406 4.738281 C 16.691406 3.933594 16.042969 3.28125 15.238281 3.28125 C 14.503906 3.28125 13.738281 3.28125 13.738281 3.28125 Z M 13.738281 3.28125 " fill-opacity="1" fill-rule="evenodd"/></g><path fill="#000000" d="M 20.621094 8.265625 C 18.035156 8.265625 15.949219 10.28125 15.949219 12.9375 C 15.949219 15.59375 18.035156 17.605469 20.621094 17.605469 C 23.210938 17.605469 25.292969 15.59375 25.292969 12.9375 C 25.292969 10.28125 23.210938 8.265625 20.621094 8.265625 Z M 20.621094 8.265625 " fill-opacity="1" fill-rule="nonzero"/><g clip-path="url(#8068990b30)"><path fill="#000000" d="M 17.75 18.308594 C 14.367188 19.078125 12.734375 20.207031 12.070312 23.378906 C 11.890625 24.234375 12.171875 24.488281 12.519531 24.605469 C 14.921875 25.417969 18.875 25.710938 20.621094 25.710938 C 22.367188 25.710938 26.324219 25.417969 28.722656 24.605469 C 29.074219 24.488281 29.355469 24.238281 29.171875 23.378906 C 28.511719 20.207031 26.878906 19.078125 23.496094 18.308594 L 20.929688 18.894531 C 20.6875 18.953125 20.554688 18.953125 20.316406 18.894531 Z M 17.75 18.308594 " fill-opacity="1" fill-rule="nonzero"/></g><g clip-path="url(#7338384066)"><path fill="#000000" d="M 20.621094 6.160156 C 19.238281 6.160156 17.84375 6.492188 16.636719 7.296875 C 15.28125 8.199219 14.335938 9.539062 13.898438 11.03125 C 13.777344 11.019531 13.632812 11.023438 13.464844 11.074219 C 12.824219 11.253906 12.34375 11.777344 12.128906 12.238281 C 11.847656 12.839844 11.730469 13.632812 11.855469 14.457031 C 11.976562 15.273438 12.324219 15.953125 12.753906 16.371094 C 13.1875 16.785156 13.675781 16.925781 14.164062 16.820312 C 14.890625 16.667969 15.246094 16.550781 15.144531 15.878906 L 14.65625 12.605469 C 14.753906 10.835938 15.671875 9.167969 17.203125 8.144531 C 18.238281 7.453125 19.4375 7.179688 20.621094 7.179688 C 21.808594 7.179688 23.003906 7.453125 24.039062 8.144531 C 25.570312 9.167969 26.488281 10.835938 26.589844 12.605469 L 26.097656 15.878906 C 25.996094 16.550781 26.355469 16.667969 27.082031 16.820312 C 27.566406 16.925781 28.054688 16.785156 28.488281 16.371094 C 28.921875 15.953125 29.269531 15.277344 29.390625 14.457031 C 29.515625 13.632812 29.398438 12.839844 29.117188 12.238281 C 28.902344 11.777344 28.421875 11.253906 27.78125 11.074219 C 27.609375 11.023438 27.464844 11.019531 27.347656 11.03125 C 26.910156 9.539062 25.964844 8.199219 24.605469 7.296875 C 23.398438 6.492188 22.003906 6.160156 20.621094 6.160156 Z M 20.621094 6.160156 " fill-opacity="1" fill-rule="evenodd"/></g><path fill="#000000" d="M 6.976562 8.882812 C 8.160156 9.1875 8.730469 9.632812 8.960938 10.886719 C 9.023438 11.226562 8.925781 11.324219 8.804688 11.371094 C 7.964844 11.691406 6.585938 11.804688 5.976562 11.804688 C 5.367188 11.804688 3.988281 11.691406 3.148438 11.371094 C 3.027344 11.324219 2.929688 11.226562 2.992188 10.886719 C 3.222656 9.632812 3.792969 9.1875 4.972656 8.882812 L 5.871094 9.503906 C 5.941406 9.554688 6.011719 9.554688 6.085938 9.503906 Z M 6.976562 8.882812 " fill-opacity="1" fill-rule="nonzero"/><path fill="#000000" d="M 5.976562 5.230469 C 5.035156 5.230469 4.277344 5.964844 4.277344 6.929688 C 4.277344 7.898438 5.035156 8.628906 5.976562 8.628906 C 6.917969 8.628906 7.675781 7.898438 7.675781 6.929688 C 7.675781 5.964844 6.917969 5.230469 5.976562 5.230469 Z M 5.976562 5.230469 " fill-opacity="1" fill-rule="evenodd"/><g clip-path="url(#1f16c82bee)"><path fill="#000000" d="M 12.328125 5.433594 C 12.605469 5.433594 12.832031 5.660156 12.832031 5.9375 C 12.832031 6.214844 12.605469 6.4375 12.328125 6.4375 C 12.054688 6.4375 11.828125 6.214844 11.828125 5.9375 C 11.828125 5.660156 12.054688 5.433594 12.328125 5.433594 Z M 10.980469 5.433594 C 11.257812 5.433594 11.480469 5.660156 11.484375 5.9375 C 11.480469 6.214844 11.257812 6.4375 10.980469 6.4375 C 10.703125 6.4375 10.480469 6.214844 10.480469 5.9375 C 10.480469 5.660156 10.703125 5.433594 10.980469 5.433594 Z M 9.628906 5.433594 C 9.90625 5.433594 10.132812 5.660156 10.132812 5.9375 C 10.132812 6.214844 9.90625 6.4375 9.628906 6.4375 C 9.355469 6.4375 9.128906 6.214844 9.128906 5.9375 C 9.128906 5.660156 9.355469 5.433594 9.628906 5.433594 Z M 10.980469 3.28125 C 9.511719 3.28125 8.328125 4.425781 8.328125 5.9375 C 8.328125 6.664062 8.597656 7.300781 9.042969 7.773438 L 8.886719 8.484375 C 8.835938 8.71875 8.996094 8.875 9.207031 8.757812 L 9.898438 8.371094 C 10.230469 8.511719 10.59375 8.589844 10.980469 8.589844 C 12.449219 8.589844 13.632812 7.445312 13.632812 5.9375 C 13.636719 4.425781 12.453125 3.28125 10.980469 3.28125 Z M 10.980469 3.28125 " fill-opacity="1" fill-rule="evenodd"/></g></svg>