<svg xmlns="http://www.w3.org/2000/svg" xmlns:xlink="http://www.w3.org/1999/xlink" width="40" zoomAndPan="magnify" viewBox="0 0 30 30.000001" height="40" preserveAspectRatio="xMidYMid meet" version="1.0"><defs><clipPath id="ebc838f67d"><path d="M 0.484375 2.285156 L 29.515625 2.285156 L 29.515625 26.964844 L 0.484375 26.964844 Z M 0.484375 2.285156 " clip-rule="nonzero"/></clipPath></defs><g clip-path="url(#ebc838f67d)"><path fill="#000000" d="M 21.101562 16.921875 C 20.859375 16.921875 20.664062 17.121094 20.664062 17.367188 C 20.664062 17.609375 20.859375 17.804688 21.101562 17.804688 C 21.34375 17.804688 21.539062 17.609375 21.539062 17.363281 C 21.539062 17.121094 21.34375 16.921875 21.101562 16.921875 Z M 19.328125 11.082031 C 19.167969 11.265625 19.183594 11.542969 19.367188 11.703125 C 19.546875 11.867188 19.824219 11.847656 19.984375 11.667969 C 20.265625 11.34375 20.675781 11.160156 21.101562 11.160156 C 21.925781 11.160156 22.597656 11.835938 22.597656 12.667969 C 22.597656 13.3125 22.191406 13.882812 21.589844 14.09375 C 21.027344 14.289062 20.664062 14.804688 20.664062 15.402344 L 20.664062 15.785156 C 20.664062 16.027344 20.859375 16.226562 21.101562 16.226562 C 21.34375 16.226562 21.539062 16.027344 21.539062 15.785156 L 21.539062 15.402344 C 21.539062 15.183594 21.667969 15 21.875 14.929688 C 22.828125 14.59375 23.46875 13.6875 23.46875 12.667969 C 23.46875 11.347656 22.40625 10.277344 21.101562 10.277344 C 20.425781 10.277344 19.777344 10.570312 19.328125 11.082031 Z M 28.589844 25.019531 L 26.277344 20.980469 C 26.242188 20.917969 26.160156 20.894531 26.097656 20.929688 L 24.878906 21.640625 C 24.816406 21.679688 24.796875 21.761719 24.832031 21.824219 L 27.144531 25.863281 C 27.179688 25.925781 27.261719 25.949219 27.324219 25.914062 L 28.542969 25.203125 C 28.605469 25.167969 28.625 25.082031 28.589844 25.019531 Z M 20.90625 22.03125 C 20.90625 22.140625 20.816406 22.230469 20.710938 22.230469 L 7.945312 22.230469 C 7.839844 22.230469 7.75 22.140625 7.75 22.03125 L 7.75 6.050781 C 7.75 5.941406 7.839844 5.851562 7.945312 5.851562 L 10.886719 5.851562 L 10.886719 6.308594 C 10.886719 6.75 11.242188 7.105469 11.675781 7.105469 L 16.980469 7.105469 C 17.414062 7.105469 17.769531 6.75 17.769531 6.308594 L 17.769531 5.851562 L 20.710938 5.851562 C 20.816406 5.851562 20.90625 5.941406 20.90625 6.050781 L 20.90625 8.507812 C 18.078125 8.734375 15.84375 11.128906 15.84375 14.042969 C 15.84375 16.953125 18.078125 19.351562 20.90625 19.578125 Z M 6.875 20.6875 L 6.875 9.402344 L 4.132812 19.738281 C 4.101562 19.84375 4.167969 19.953125 4.269531 19.984375 Z M 3.570312 18.445312 L 1.609375 17.300781 C 1.515625 17.25 1.484375 17.125 1.535156 17.03125 L 6.03125 9.171875 Z M 11.761719 6.226562 L 16.894531 6.226562 L 16.894531 5.410156 C 16.894531 5.121094 16.664062 4.890625 16.378906 4.890625 L 15.5625 4.890625 C 15.269531 4.890625 15.058594 4.597656 15.148438 4.3125 C 15.324219 3.757812 14.914062 3.179688 14.328125 3.179688 C 13.742188 3.179688 13.332031 3.757812 13.507812 4.3125 C 13.597656 4.597656 13.390625 4.890625 13.09375 4.890625 L 12.277344 4.890625 C 11.992188 4.890625 11.761719 5.121094 11.761719 5.410156 Z M 21.34375 9.371094 C 23.894531 9.371094 25.972656 11.464844 25.972656 14.042969 C 25.972656 16.617188 23.894531 18.710938 21.34375 18.710938 C 18.792969 18.710938 16.71875 16.617188 16.71875 14.042969 C 16.71875 11.464844 18.792969 9.371094 21.34375 9.371094 Z M 29.449219 25.351562 C 29.378906 25.613281 29.210938 25.832031 28.980469 25.96875 L 27.761719 26.675781 C 27.28125 26.957031 26.664062 26.792969 26.386719 26.304688 L 24.074219 22.265625 C 23.796875 21.78125 23.960938 21.160156 24.441406 20.878906 L 24.671875 20.742188 L 23.707031 19.054688 C 23.117188 19.339844 22.464844 19.523438 21.78125 19.578125 L 21.78125 22.03125 C 21.78125 22.628906 21.300781 23.113281 20.710938 23.113281 L 7.945312 23.113281 C 7.355469 23.113281 6.875 22.628906 6.875 22.03125 L 6.875 21.601562 L 4.042969 20.835938 C 3.472656 20.679688 3.132812 20.085938 3.285156 19.507812 L 3.335938 19.328125 L 1.171875 18.066406 C 0.660156 17.769531 0.484375 17.105469 0.78125 16.589844 L 6.882812 5.917969 C 6.949219 5.382812 7.402344 4.96875 7.945312 4.96875 L 10.957031 4.96875 C 11.140625 4.410156 11.664062 4.007812 12.277344 4.007812 L 12.59375 4.007812 C 12.617188 3.058594 13.386719 2.296875 14.328125 2.296875 C 15.269531 2.296875 16.042969 3.058594 16.0625 4.007812 L 16.378906 4.007812 C 16.996094 4.007812 17.515625 4.410156 17.699219 4.96875 L 20.710938 4.96875 C 21.300781 4.96875 21.78125 5.453125 21.78125 6.050781 L 21.78125 8.507812 C 24.613281 8.734375 26.847656 11.128906 26.847656 14.042969 C 26.847656 15.933594 25.902344 17.609375 24.464844 18.613281 L 25.429688 20.300781 C 25.75 20.113281 26 19.949219 26.425781 20.066406 C 26.683594 20.136719 26.902344 20.304688 27.035156 20.539062 L 29.347656 24.578125 C 29.480469 24.8125 29.515625 25.089844 29.449219 25.351562 Z M 16.222656 18.78125 L 10.101562 18.78125 C 9.859375 18.78125 9.664062 18.976562 9.664062 19.21875 C 9.664062 19.464844 9.859375 19.660156 10.101562 19.660156 L 16.222656 19.660156 C 16.464844 19.660156 16.660156 19.464844 16.660156 19.21875 C 16.660156 18.976562 16.464844 18.78125 16.222656 18.78125 Z M 10.101562 16.210938 L 14.300781 16.210938 C 14.539062 16.210938 14.734375 16.011719 14.734375 15.769531 C 14.734375 15.523438 14.539062 15.328125 14.300781 15.328125 L 10.101562 15.328125 C 9.859375 15.328125 9.664062 15.523438 9.664062 15.769531 C 9.664062 16.011719 9.859375 16.210938 10.101562 16.210938 Z M 10.101562 12.757812 L 14.300781 12.757812 C 14.539062 12.757812 14.734375 12.558594 14.734375 12.316406 C 14.734375 12.070312 14.539062 11.875 14.300781 11.875 L 10.101562 11.875 C 9.859375 11.875 9.664062 12.070312 9.664062 12.316406 C 9.664062 12.558594 9.859375 12.757812 10.101562 12.757812 Z M 9.664062 8.863281 C 9.664062 9.105469 9.859375 9.304688 10.101562 9.304688 L 16.222656 9.304688 C 16.464844 9.304688 16.660156 9.105469 16.660156 8.863281 C 16.660156 8.621094 16.464844 8.421875 16.222656 8.421875 L 10.101562 8.421875 C 9.859375 8.421875 9.664062 8.621094 9.664062 8.863281 Z M 9.664062 8.863281 " fill-opacity="1" fill-rule="evenodd"/></g></svg>