<svg xmlns="http://www.w3.org/2000/svg" xmlns:xlink="http://www.w3.org/1999/xlink" width="40" zoomAndPan="magnify" viewBox="0 0 30 30.000001" height="40" preserveAspectRatio="xMidYMid meet" version="1.0"><defs><clipPath id="06e3b710ed"><path d="M 0.484375 7 L 10 7 L 10 28.597656 L 0.484375 28.597656 Z M 0.484375 7 " clip-rule="nonzero"/></clipPath><clipPath id="7861a2d456"><path d="M 20 7 L 29.515625 7 L 29.515625 28.597656 L 20 28.597656 Z M 20 7 " clip-rule="nonzero"/></clipPath><clipPath id="f79b5bfdec"><path d="M 10 0.289062 L 20 0.289062 L 20 10 L 10 10 Z M 10 0.289062 " clip-rule="nonzero"/></clipPath></defs><path fill="#000000" d="M 5.714844 7.332031 C 5.738281 7.335938 5.765625 7.332031 5.789062 7.332031 C 6.285156 7.445312 6.839844 7.378906 7.257812 7.085938 C 7.722656 6.765625 8.035156 6.257812 8.117188 5.691406 C 8.203125 5.132812 8.117188 4.523438 7.789062 4.054688 C 7.460938 3.589844 6.96875 3.277344 6.410156 3.191406 C 5.859375 3.109375 5.273438 3.199219 4.800781 3.511719 C 4.304688 3.847656 4.007812 4.355469 3.933594 4.949219 C 3.789062 6.070312 4.574219 7.238281 5.714844 7.332031 Z M 5.714844 7.332031 " fill-opacity="1" fill-rule="nonzero"/><g clip-path="url(#06e3b710ed)"><path fill="#000000" d="M 2.207031 24.777344 C 2.375 25.78125 2.507812 27.523438 3.074219 28.402344 C 3.113281 28.460938 3.152344 28.515625 3.214844 28.546875 C 3.316406 28.59375 3.4375 28.546875 3.527344 28.480469 C 3.804688 28.269531 3.894531 27.894531 3.894531 27.546875 C 3.90625 26.234375 3.902344 23.710938 3.945312 22.394531 C 3.945312 21.496094 4.085938 20.605469 4.164062 19.710938 C 4.175781 19.597656 4.1875 19.480469 4.246094 19.382812 C 4.300781 19.285156 4.414062 19.210938 4.527344 19.230469 C 4.632812 19.253906 4.703125 19.347656 4.753906 19.441406 C 4.953125 19.808594 4.957031 20.265625 5.039062 20.667969 C 5.386719 22.398438 5.625 24.78125 6.34375 26.386719 C 6.507812 26.753906 6.734375 27.089844 6.988281 27.40625 C 7.105469 27.550781 7.238281 27.695312 7.414062 27.757812 C 8.261719 28.054688 7.867188 26.125 7.769531 25.761719 C 7.3125 24.109375 6.75 18.636719 6.722656 17.890625 C 6.691406 17.113281 6.71875 16.332031 6.804688 15.558594 C 6.886719 14.855469 6.992188 14.160156 7.113281 13.46875 C 6.996094 14.144531 7.410156 15.214844 7.597656 15.863281 C 7.804688 16.5625 8.003906 17.207031 8.445312 17.792969 C 8.839844 18.320312 9.269531 17.964844 9.292969 17.417969 C 9.316406 16.925781 8.933594 16.351562 8.8125 15.875 C 8.625 15.117188 8.476562 14.347656 8.382812 13.570312 C 8.285156 12.808594 8.253906 12.042969 8.21875 11.277344 C 8.1875 10.578125 8.128906 9.84375 7.773438 9.222656 C 7.488281 8.726562 7.117188 8.355469 6.636719 8.046875 C 6.417969 7.90625 6.195312 7.765625 5.941406 7.714844 C 4.953125 7.519531 3.769531 8.148438 3.074219 8.789062 C 1.867188 9.902344 1.246094 11.496094 0.875 13.058594 C 0.589844 14.265625 0.492188 15.59375 0.492188 16.835938 C 0.492188 17.019531 0.5 17.207031 0.570312 17.375 C 0.640625 17.542969 0.792969 17.6875 0.972656 17.699219 C 1.023438 17.703125 1.078125 17.691406 1.121094 17.664062 C 1.171875 17.625 1.191406 17.5625 1.210938 17.503906 C 1.59375 16.277344 1.585938 14.949219 1.890625 13.695312 C 2.035156 13.105469 2.199219 12.378906 2.523438 11.789062 C 2.386719 12.320312 2.265625 12.859375 2.160156 13.398438 C 1.882812 14.871094 1.734375 16.367188 1.71875 17.863281 C 1.714844 18.355469 1.722656 18.871094 1.742188 19.410156 C 1.8125 21.019531 1.945312 23.1875 2.210938 24.777344 Z M 2.207031 24.777344 " fill-opacity="1" fill-rule="nonzero"/></g><path fill="#000000" d="M 25.714844 4.597656 C 25.636719 4 25.339844 3.492188 24.84375 3.160156 C 24.371094 2.84375 23.785156 2.753906 23.238281 2.839844 C 22.679688 2.921875 22.1875 3.234375 21.859375 3.699219 C 21.527344 4.171875 21.445312 4.777344 21.527344 5.339844 C 21.609375 5.902344 21.925781 6.414062 22.386719 6.730469 C 22.808594 7.023438 23.363281 7.089844 23.855469 6.980469 C 23.878906 6.976562 23.90625 6.980469 23.933594 6.976562 C 25.070312 6.882812 25.855469 5.714844 25.714844 4.597656 Z M 25.714844 4.597656 " fill-opacity="1" fill-rule="nonzero"/><g clip-path="url(#7861a2d456)"><path fill="#000000" d="M 28.261719 19.410156 C 28.28125 18.871094 28.292969 18.355469 28.285156 17.863281 C 28.269531 16.367188 28.121094 14.871094 27.84375 13.398438 C 27.742188 12.859375 27.617188 12.320312 27.480469 11.789062 C 27.808594 12.378906 27.96875 13.105469 28.113281 13.695312 C 28.417969 14.949219 28.410156 16.277344 28.792969 17.503906 C 28.8125 17.5625 28.835938 17.625 28.882812 17.664062 C 28.925781 17.691406 28.980469 17.703125 29.03125 17.699219 C 29.210938 17.6875 29.363281 17.542969 29.433594 17.375 C 29.503906 17.207031 29.507812 17.019531 29.511719 16.835938 C 29.511719 15.59375 29.414062 14.265625 29.128906 13.054688 C 28.757812 11.492188 28.136719 9.902344 26.929688 8.785156 C 26.234375 8.144531 25.050781 7.515625 24.0625 7.710938 C 23.808594 7.761719 23.585938 7.90625 23.367188 8.042969 C 22.886719 8.351562 22.515625 8.726562 22.230469 9.222656 C 21.875 9.839844 21.816406 10.574219 21.785156 11.273438 C 21.75 12.042969 21.71875 12.804688 21.621094 13.566406 C 21.527344 14.34375 21.445312 14.785156 21.257812 15.546875 C 21.136719 16.023438 20.773438 16.746094 20.773438 17.085938 C 20.777344 17.632812 21.230469 17.988281 21.625 17.464844 C 22.066406 16.875 22.265625 16.230469 22.46875 15.53125 C 22.660156 14.882812 22.75 14.128906 22.890625 13.46875 C 23.113281 13.890625 23.117188 14.855469 23.199219 15.558594 C 23.285156 16.332031 23.3125 17.113281 23.285156 17.890625 C 23.253906 18.632812 22.804688 24.109375 22.347656 25.757812 C 22.25 26.121094 21.855469 28.054688 22.703125 27.757812 C 22.878906 27.695312 23.011719 27.550781 23.128906 27.402344 C 23.382812 27.089844 23.609375 26.753906 23.773438 26.382812 C 24.492188 24.78125 24.617188 22.398438 24.964844 20.667969 C 25.046875 20.265625 25.050781 19.804688 25.25 19.441406 C 25.300781 19.347656 25.371094 19.25 25.476562 19.230469 C 25.589844 19.207031 25.703125 19.28125 25.757812 19.382812 C 25.816406 19.480469 25.828125 19.59375 25.839844 19.710938 C 25.917969 20.605469 26.058594 21.492188 26.058594 22.390625 C 26.101562 23.710938 26.210938 26.230469 26.21875 27.542969 C 26.222656 27.890625 26.3125 28.265625 26.589844 28.476562 C 26.679688 28.546875 26.800781 28.59375 26.902344 28.542969 C 26.964844 28.515625 27.003906 28.457031 27.042969 28.402344 C 27.609375 27.519531 27.710938 25.746094 27.90625 24.214844 C 28.113281 22.617188 28.191406 21.015625 28.261719 19.40625 Z M 28.261719 19.410156 " fill-opacity="1" fill-rule="nonzero"/></g><g clip-path="url(#f79b5bfdec)"><path fill="#000000" d="M 12.425781 0.964844 C 11.304688 1.4375 10.628906 2.683594 10.625 3.894531 C 10.617188 5.109375 11.683594 6.449219 12.464844 7.382812 C 14 9.214844 14.875 10.335938 16.796875 8.117188 C 18.164062 6.539062 20.457031 3.605469 18.875 1.625 C 17.808594 0.289062 15.886719 0.382812 15.207031 2.03125 C 14.492188 1.164062 13.640625 0.457031 12.425781 0.964844 Z M 12.425781 0.964844 " fill-opacity="1" fill-rule="nonzero"/></g><path fill="#000000" d="M 13.089844 19.90625 C 12.679688 19.792969 12.386719 19.835938 11.960938 19.800781 C 11.144531 19.734375 10.699219 19.320312 10.148438 18.769531 C 9.910156 18.527344 9.214844 17.839844 9.042969 17.546875 C 8.875 17.257812 8.675781 16.808594 8.320312 17.183594 C 8.125 17.390625 8.144531 17.667969 8.234375 17.917969 C 8.425781 18.457031 9.308594 19.3125 9.675781 19.738281 C 9.9375 20.039062 10.152344 20.183594 10.273438 20.570312 C 10.410156 21 10.320312 21.660156 10.3125 22.109375 C 10.304688 22.851562 10.300781 23.589844 10.292969 24.332031 C 10.285156 24.898438 10.28125 25.464844 10.273438 26.027344 C 10.269531 26.566406 10.328125 27.089844 10.546875 27.601562 C 10.597656 27.726562 10.660156 27.855469 10.773438 27.929688 C 10.886719 28.007812 11.058594 28.007812 11.140625 27.898438 C 11.175781 27.851562 11.1875 27.789062 11.195312 27.730469 C 11.292969 27.148438 11.246094 26.453125 11.316406 25.871094 C 11.363281 25.46875 11.382812 24.933594 11.5625 24.566406 C 11.679688 24.332031 11.921875 24.394531 12.050781 24.582031 C 12.210938 24.808594 12.214844 25.253906 12.253906 25.523438 C 12.347656 26.242188 12.472656 26.957031 12.796875 27.613281 C 12.84375 27.707031 12.894531 27.796875 12.96875 27.867188 C 13.046875 27.9375 13.152344 27.980469 13.253906 27.960938 C 13.441406 27.917969 13.460938 27.667969 13.46875 27.515625 C 13.515625 26.714844 13.398438 25.898438 13.371094 25.09375 C 13.347656 24.453125 13.308594 23.8125 13.265625 23.175781 C 13.246094 22.902344 12.945312 21.613281 13.351562 21.566406 C 13.597656 21.539062 13.972656 23.246094 14.34375 23.890625 C 14.585938 24.3125 15.171875 24.003906 14.976562 23.550781 C 14.550781 22.570312 13.929688 20.136719 13.089844 19.90625 Z M 13.089844 19.90625 " fill-opacity="1" fill-rule="nonzero"/><path fill="#000000" d="M 11.730469 16.507812 C 10.480469 16.933594 10.347656 18.84375 11.675781 19.300781 C 12.410156 19.554688 13.234375 19.261719 13.5625 18.566406 C 14.335938 16.921875 12.441406 16.265625 11.730469 16.507812 Z M 11.730469 16.507812 " fill-opacity="1" fill-rule="nonzero"/><path fill="#000000" d="M 16.410156 19.90625 C 16.828125 19.824219 17.113281 19.835938 17.539062 19.800781 C 18.359375 19.734375 18.800781 19.320312 19.351562 18.769531 C 19.589844 18.527344 20.285156 17.839844 20.457031 17.546875 C 20.625 17.257812 20.824219 16.808594 21.179688 17.183594 C 21.375 17.390625 21.355469 17.667969 21.265625 17.917969 C 21.074219 18.457031 20.191406 19.3125 19.824219 19.738281 C 19.5625 20.039062 19.347656 20.183594 19.226562 20.570312 C 19.039062 21.160156 19.121094 22.03125 19.226562 22.636719 C 19.332031 23.261719 19.457031 24.21875 19.796875 24.757812 C 19.871094 24.871094 19.941406 24.988281 19.953125 25.121094 C 19.972656 25.410156 19.207031 25.558594 19.03125 25.644531 C 19.003906 26.207031 18.839844 27.855469 18.726562 27.929688 C 18.617188 28.007812 18.441406 28.007812 18.363281 27.898438 C 18.328125 27.851562 18.316406 27.789062 18.304688 27.730469 C 18.238281 27.335938 18.34375 25.945312 18.152344 25.695312 C 18.015625 25.714844 17.484375 25.699219 17.265625 25.714844 C 17.152344 25.804688 16.921875 27.171875 16.703125 27.613281 C 16.65625 27.707031 16.605469 27.796875 16.53125 27.867188 C 16.453125 27.9375 16.347656 27.980469 16.246094 27.960938 C 16.058594 27.917969 16 27.664062 16.03125 27.515625 C 16.089844 27.1875 16.199219 26.539062 16.253906 26.066406 C 16.265625 25.9375 16.3125 25.726562 16.304688 25.648438 C 16.121094 25.570312 15.59375 25.542969 15.574219 25.253906 C 15.566406 25.164062 15.609375 25.082031 15.648438 25.003906 C 15.820312 24.660156 16.875 21.648438 16.148438 21.566406 C 15.902344 21.539062 15.527344 23.246094 15.15625 23.890625 C 14.914062 24.3125 14.328125 24.003906 14.523438 23.550781 C 14.949219 22.570312 15.546875 20.074219 16.410156 19.90625 Z M 16.410156 19.90625 " fill-opacity="1" fill-rule="nonzero"/><path fill="#000000" d="M 15.9375 18.566406 C 16.292969 19.25 17.097656 19.574219 17.824219 19.300781 C 19.03125 18.847656 19.210938 16.957031 17.90625 16.542969 C 17.4375 16.394531 16.765625 16.34375 16.371094 16.648438 C 15.789062 17.101562 15.597656 17.910156 15.9375 18.566406 Z M 15.9375 18.566406 " fill-opacity="1" fill-rule="nonzero"/></svg>