<svg xmlns="http://www.w3.org/2000/svg" xmlns:xlink="http://www.w3.org/1999/xlink" width="40" zoomAndPan="magnify" viewBox="0 0 30 30.000001" height="40" preserveAspectRatio="xMidYMid meet" version="1.0"><defs><clipPath id="440e81f515"><path d="M 4 13 L 29 13 L 29 29.03125 L 4 29.03125 Z M 4 13 " clip-rule="nonzero"/></clipPath><clipPath id="0811a75030"><path d="M 1.136719 -0.0507812 L 29.441406 0 L 29.390625 29.035156 L 1.082031 28.980469 Z M 1.136719 -0.0507812 " clip-rule="nonzero"/></clipPath><clipPath id="3232a01c98"><path d="M 1.136719 -0.0507812 L 29.441406 0 L 29.390625 29.035156 L 1.082031 28.980469 Z M 1.136719 -0.0507812 " clip-rule="nonzero"/></clipPath><clipPath id="2831f29ca7"><path d="M 1.136719 -0.0507812 L 29.441406 0 L 29.390625 29.035156 L 1.082031 28.980469 Z M 1.136719 -0.0507812 " clip-rule="nonzero"/></clipPath><clipPath id="859b6ae7b6"><path d="M 1 12 L 6 12 L 6 25 L 1 25 Z M 1 12 " clip-rule="nonzero"/></clipPath><clipPath id="dac2000e18"><path d="M 1.136719 -0.0507812 L 29.441406 0 L 29.390625 29.035156 L 1.082031 28.980469 Z M 1.136719 -0.0507812 " clip-rule="nonzero"/></clipPath><clipPath id="fbd4120544"><path d="M 1.136719 -0.0507812 L 29.441406 0 L 29.390625 29.035156 L 1.082031 28.980469 Z M 1.136719 -0.0507812 " clip-rule="nonzero"/></clipPath><clipPath id="fdafd87d66"><path d="M 1.136719 -0.0507812 L 29.441406 0 L 29.390625 29.035156 L 1.082031 28.980469 Z M 1.136719 -0.0507812 " clip-rule="nonzero"/></clipPath><clipPath id="e18326b667"><path d="M 21 2 L 28 2 L 28 9 L 21 9 Z M 21 2 " clip-rule="nonzero"/></clipPath><clipPath id="42e14aba4b"><path d="M 1.136719 -0.0507812 L 29.441406 0 L 29.390625 29.035156 L 1.082031 28.980469 Z M 1.136719 -0.0507812 " clip-rule="nonzero"/></clipPath><clipPath id="66d9d7c59e"><path d="M 1.136719 -0.0507812 L 29.441406 0 L 29.390625 29.035156 L 1.082031 28.980469 Z M 1.136719 -0.0507812 " clip-rule="nonzero"/></clipPath><clipPath id="f488aaafda"><path d="M 1.136719 -0.0507812 L 29.441406 0 L 29.390625 29.035156 L 1.082031 28.980469 Z M 1.136719 -0.0507812 " clip-rule="nonzero"/></clipPath><clipPath id="31ad317c7a"><path d="M 23 17 L 25 17 L 25 26 L 23 26 Z M 23 17 " clip-rule="nonzero"/></clipPath><clipPath id="a279d87a5e"><path d="M 1.136719 -0.0507812 L 29.441406 0 L 29.390625 29.035156 L 1.082031 28.980469 Z M 1.136719 -0.0507812 " clip-rule="nonzero"/></clipPath><clipPath id="338deda865"><path d="M 1.136719 -0.0507812 L 29.441406 0 L 29.390625 29.035156 L 1.082031 28.980469 Z M 1.136719 -0.0507812 " clip-rule="nonzero"/></clipPath><clipPath id="af2e7eed94"><path d="M 1.136719 -0.0507812 L 29.441406 0 L 29.390625 29.035156 L 1.082031 28.980469 Z M 1.136719 -0.0507812 " clip-rule="nonzero"/></clipPath><clipPath id="b90a90c93e"><path d="M 18 9 L 29.515625 9 L 29.515625 18 L 18 18 Z M 18 9 " clip-rule="nonzero"/></clipPath><clipPath id="35624a8034"><path d="M 1.136719 -0.0507812 L 29.441406 0 L 29.390625 29.035156 L 1.082031 28.980469 Z M 1.136719 -0.0507812 " clip-rule="nonzero"/></clipPath><clipPath id="5cc8a60811"><path d="M 1.136719 -0.0507812 L 29.441406 0 L 29.390625 29.035156 L 1.082031 28.980469 Z M 1.136719 -0.0507812 " clip-rule="nonzero"/></clipPath><clipPath id="8a6f915a1f"><path d="M 1.136719 -0.0507812 L 29.441406 0 L 29.390625 29.035156 L 1.082031 28.980469 Z M 1.136719 -0.0507812 " clip-rule="nonzero"/></clipPath><clipPath id="077484677f"><path d="M 21 13 L 28 13 L 28 26 L 21 26 Z M 21 13 " clip-rule="nonzero"/></clipPath><clipPath id="f5c488cad6"><path d="M 1.136719 -0.0507812 L 29.441406 0 L 29.390625 29.035156 L 1.082031 28.980469 Z M 1.136719 -0.0507812 " clip-rule="nonzero"/></clipPath><clipPath id="2730399202"><path d="M 1.136719 -0.0507812 L 29.441406 0 L 29.390625 29.035156 L 1.082031 28.980469 Z M 1.136719 -0.0507812 " clip-rule="nonzero"/></clipPath><clipPath id="7e227271e3"><path d="M 1.136719 -0.0507812 L 29.441406 0 L 29.390625 29.035156 L 1.082031 28.980469 Z M 1.136719 -0.0507812 " clip-rule="nonzero"/></clipPath><clipPath id="7b2cdbd68c"><path d="M 12 7 L 19 7 L 19 14 L 12 14 Z M 12 7 " clip-rule="nonzero"/></clipPath><clipPath id="bdc0239ca8"><path d="M 1.136719 -0.0507812 L 29.441406 0 L 29.390625 29.035156 L 1.082031 28.980469 Z M 1.136719 -0.0507812 " clip-rule="nonzero"/></clipPath><clipPath id="fbe8171103"><path d="M 1.136719 -0.0507812 L 29.441406 0 L 29.390625 29.035156 L 1.082031 28.980469 Z M 1.136719 -0.0507812 " clip-rule="nonzero"/></clipPath><clipPath id="3714662ff5"><path d="M 1.136719 -0.0507812 L 29.441406 0 L 29.390625 29.035156 L 1.082031 28.980469 Z M 1.136719 -0.0507812 " clip-rule="nonzero"/></clipPath><clipPath id="6c8483f325"><path d="M 5 0 L 18 0 L 18 12 L 5 12 Z M 5 0 " clip-rule="nonzero"/></clipPath><clipPath id="2d460f89b6"><path d="M 1.136719 -0.0507812 L 29.441406 0 L 29.390625 29.035156 L 1.082031 28.980469 Z M 1.136719 -0.0507812 " clip-rule="nonzero"/></clipPath><clipPath id="91e314cc89"><path d="M 1.136719 -0.0507812 L 29.441406 0 L 29.390625 29.035156 L 1.082031 28.980469 Z M 1.136719 -0.0507812 " clip-rule="nonzero"/></clipPath><clipPath id="91ec1ac0a1"><path d="M 1.136719 -0.0507812 L 29.441406 0 L 29.390625 29.035156 L 1.082031 28.980469 Z M 1.136719 -0.0507812 " clip-rule="nonzero"/></clipPath></defs><g clip-path="url(#440e81f515)"><g clip-path="url(#0811a75030)"><g clip-path="url(#3232a01c98)"><g clip-path="url(#2831f29ca7)"><path fill="#000000" d="M 26.75 29.027344 L 16.601562 29.011719 C 13.144531 29.003906 9.863281 27.683594 7.363281 25.289062 L 4.546875 22.59375 C 4.457031 22.507812 4.402344 22.386719 4.40625 22.261719 L 4.421875 13.6875 C 4.421875 13.433594 4.625 13.230469 4.875 13.230469 L 9.316406 13.238281 C 10.496094 13.242188 11.640625 13.585938 12.625 14.242188 L 18.027344 17.828125 C 19.0625 18.511719 19.375 19.894531 18.738281 20.976562 C 18.191406 21.90625 17.015625 22.320312 15.945312 21.964844 L 12.816406 20.925781 L 14.597656 22.984375 C 15.609375 24.15625 17.074219 24.828125 18.617188 24.832031 L 26.667969 24.84375 C 27.777344 24.847656 28.730469 25.671875 28.832031 26.726562 C 28.890625 27.316406 28.695312 27.90625 28.300781 28.34375 C 27.90625 28.78125 27.339844 29.03125 26.75 29.027344 Z M 5.316406 22.066406 L 7.992188 24.628906 C 10.324219 26.859375 13.382812 28.089844 16.605469 28.097656 L 26.753906 28.117188 C 27.085938 28.117188 27.402344 27.976562 27.628906 27.730469 C 27.851562 27.480469 27.960938 27.15625 27.925781 26.816406 C 27.867188 26.222656 27.3125 25.757812 26.664062 25.757812 L 18.617188 25.742188 C 16.808594 25.738281 15.09375 24.953125 13.910156 23.582031 L 11.046875 20.269531 C 10.914062 20.113281 10.898438 19.886719 11.011719 19.714844 C 11.125 19.546875 11.339844 19.472656 11.535156 19.535156 L 16.230469 21.097656 C 16.898438 21.320312 17.625 21.074219 17.953125 20.511719 C 18.34375 19.851562 18.15625 19.003906 17.523438 18.585938 L 12.121094 15 C 11.285156 14.449219 10.316406 14.152344 9.3125 14.152344 L 5.328125 14.144531 Z M 5.316406 22.066406 " fill-opacity="1" fill-rule="nonzero"/></g></g></g></g><g clip-path="url(#859b6ae7b6)"><g clip-path="url(#dac2000e18)"><g clip-path="url(#fbd4120544)"><g clip-path="url(#fdafd87d66)"><path fill="#000000" d="M 1.554688 24.664062 C 1.433594 24.664062 1.316406 24.617188 1.234375 24.53125 C 1.148438 24.445312 1.101562 24.328125 1.101562 24.207031 L 1.121094 12.703125 C 1.121094 12.449219 1.328125 12.246094 1.578125 12.246094 L 4.878906 12.253906 C 5.128906 12.253906 5.332031 12.457031 5.332031 12.710938 L 5.3125 24.214844 C 5.3125 24.464844 5.105469 24.671875 4.855469 24.671875 Z M 2.03125 13.160156 L 2.011719 23.753906 L 4.402344 23.757812 L 4.421875 13.164062 Z M 2.03125 13.160156 " fill-opacity="1" fill-rule="nonzero"/></g></g></g></g><g clip-path="url(#e18326b667)"><g clip-path="url(#42e14aba4b)"><g clip-path="url(#66d9d7c59e)"><g clip-path="url(#f488aaafda)"><path fill="#000000" d="M 24.140625 8.398438 C 22.558594 8.398438 21.277344 7.105469 21.277344 5.519531 C 21.28125 3.9375 22.570312 2.652344 24.148438 2.652344 C 25.730469 2.65625 27.011719 3.949219 27.011719 5.53125 C 27.007812 7.117188 25.71875 8.402344 24.140625 8.398438 Z M 24.148438 3.566406 C 23.070312 3.566406 22.191406 4.441406 22.1875 5.523438 C 22.1875 6.605469 23.0625 7.484375 24.140625 7.488281 C 25.21875 7.488281 26.097656 6.609375 26.101562 5.53125 C 26.101562 4.449219 25.226562 3.570312 24.148438 3.566406 Z M 24.148438 3.566406 " fill-opacity="1" fill-rule="nonzero"/></g></g></g></g><g clip-path="url(#31ad317c7a)"><g clip-path="url(#a279d87a5e)"><g clip-path="url(#338deda865)"><g clip-path="url(#af2e7eed94)"><path fill="#000000" d="M 24.105469 25.730469 C 23.855469 25.730469 23.652344 25.527344 23.652344 25.273438 L 23.664062 18.296875 C 23.667969 18.046875 23.871094 17.839844 24.121094 17.84375 C 24.375 17.84375 24.578125 18.046875 24.574219 18.300781 L 24.5625 25.277344 C 24.5625 25.527344 24.359375 25.730469 24.105469 25.730469 Z M 24.105469 25.730469 " fill-opacity="1" fill-rule="nonzero"/></g></g></g></g><g clip-path="url(#b90a90c93e)"><g clip-path="url(#35624a8034)"><g clip-path="url(#5cc8a60811)"><g clip-path="url(#8a6f915a1f)"><path fill="#000000" d="M 28.246094 17.992188 L 26.710938 17.992188 C 26.457031 17.992188 26.253906 17.785156 26.253906 17.535156 L 26.261719 13.617188 C 26.261719 13.367188 26.46875 13.164062 26.71875 13.164062 C 26.96875 13.164062 27.171875 13.367188 27.171875 13.621094 L 27.167969 17.078125 L 28.246094 17.082031 C 28.382812 17.082031 28.492188 16.96875 28.492188 16.835938 L 28.5 14.308594 C 28.503906 11.894531 26.546875 9.925781 24.136719 9.917969 C 21.726562 9.914062 19.761719 11.875 19.757812 14.292969 L 19.753906 16.816406 C 19.753906 16.953125 19.863281 17.066406 20 17.066406 L 21.082031 17.066406 L 21.085938 13.609375 C 21.085938 13.355469 21.292969 13.152344 21.542969 13.152344 C 21.792969 13.152344 21.996094 13.359375 21.996094 13.609375 L 21.988281 17.527344 C 21.988281 17.777344 21.785156 17.980469 21.535156 17.980469 L 20 17.980469 C 19.359375 17.976562 18.84375 17.457031 18.84375 16.816406 L 18.847656 14.289062 C 18.855469 11.371094 21.226562 9 24.136719 9.007812 C 27.050781 9.011719 29.414062 11.390625 29.410156 14.308594 L 29.402344 16.835938 C 29.402344 17.476562 28.882812 17.996094 28.246094 17.992188 Z M 28.246094 17.992188 " fill-opacity="1" fill-rule="nonzero"/></g></g></g></g><g clip-path="url(#077484677f)"><g clip-path="url(#f5c488cad6)"><g clip-path="url(#2730399202)"><g clip-path="url(#7e227271e3)"><path fill="#000000" d="M 26.695312 25.734375 L 21.519531 25.726562 C 21.269531 25.726562 21.066406 25.519531 21.066406 25.269531 L 21.085938 13.609375 C 21.085938 13.355469 21.292969 13.152344 21.542969 13.152344 C 21.792969 13.152344 21.996094 13.359375 21.996094 13.609375 L 21.976562 24.816406 L 26.242188 24.824219 L 26.261719 13.617188 C 26.261719 13.367188 26.46875 13.164062 26.71875 13.164062 C 26.96875 13.164062 27.171875 13.367188 27.171875 13.621094 L 27.152344 25.28125 C 27.152344 25.53125 26.945312 25.738281 26.695312 25.734375 Z M 26.695312 25.734375 " fill-opacity="1" fill-rule="nonzero"/></g></g></g></g><g clip-path="url(#7b2cdbd68c)"><g clip-path="url(#bdc0239ca8)"><g clip-path="url(#fbe8171103)"><g clip-path="url(#3714662ff5)"><path fill="#000000" d="M 15.363281 13.265625 C 15.296875 13.265625 15.226562 13.25 15.164062 13.21875 C 13.140625 12.234375 12.398438 10.996094 12.132812 10.128906 C 12.070312 9.949219 12.027344 9.742188 12.011719 9.53125 C 12.003906 9.421875 12.003906 9.351562 12.003906 9.339844 C 12.007812 8.101562 12.953125 7.089844 14.109375 7.09375 C 14.574219 7.09375 15.015625 7.257812 15.375 7.550781 C 15.734375 7.257812 16.175781 7.097656 16.640625 7.097656 C 17.796875 7.097656 18.738281 8.113281 18.734375 9.359375 C 18.738281 9.359375 18.738281 9.433594 18.726562 9.554688 C 18.710938 9.75 18.667969 9.953125 18.601562 10.148438 C 18.332031 11.011719 17.585938 12.242188 15.5625 13.21875 C 15.5 13.25 15.429688 13.265625 15.363281 13.265625 Z M 14.109375 8.003906 C 13.453125 8.003906 12.917969 8.609375 12.914062 9.351562 C 12.914062 9.367188 12.914062 9.398438 12.921875 9.457031 C 12.929688 9.59375 12.957031 9.722656 13 9.847656 C 13.171875 10.40625 13.699219 11.429688 15.367188 12.300781 C 17.035156 11.4375 17.566406 10.414062 17.734375 9.871094 C 17.785156 9.730469 17.808594 9.605469 17.820312 9.472656 C 17.824219 9.414062 17.824219 9.382812 17.824219 9.375 C 17.828125 8.617188 17.292969 8.011719 16.636719 8.007812 C 16.292969 8.007812 15.960938 8.179688 15.734375 8.480469 C 15.5625 8.707031 15.183594 8.707031 15.011719 8.476562 C 14.785156 8.179688 14.453125 8.003906 14.109375 8.003906 Z M 14.109375 8.003906 " fill-opacity="1" fill-rule="nonzero"/></g></g></g></g><g clip-path="url(#6c8483f325)"><g clip-path="url(#2d460f89b6)"><g clip-path="url(#91e314cc89)"><g clip-path="url(#91ec1ac0a1)"><path fill="#000000" d="M 11.507812 11.046875 C 11.4375 11.046875 11.371094 11.03125 11.308594 11 C 7.53125 9.160156 6.15625 6.878906 5.667969 5.289062 C 5.554688 4.957031 5.476562 4.59375 5.453125 4.222656 C 5.433594 4.03125 5.4375 3.914062 5.4375 3.894531 C 5.441406 1.726562 7.074219 -0.0390625 9.082031 -0.0351562 C 9.996094 -0.0351562 10.863281 0.335938 11.523438 0.996094 C 12.191406 0.339844 13.058594 -0.0273438 13.972656 -0.0273438 C 15.976562 -0.0234375 17.605469 1.75 17.601562 3.921875 C 17.601562 3.921875 17.605469 4.046875 17.585938 4.253906 C 17.566406 4.5 17.523438 4.753906 17.460938 5 C 17.394531 5.246094 17.144531 5.390625 16.902344 5.324219 C 16.660156 5.261719 16.515625 5.011719 16.578125 4.769531 C 16.628906 4.574219 16.664062 4.375 16.679688 4.175781 C 16.691406 4.035156 16.691406 3.953125 16.691406 3.941406 C 16.695312 2.25 15.472656 0.886719 13.972656 0.886719 C 13.167969 0.882812 12.40625 1.277344 11.886719 1.960938 C 11.714844 2.1875 11.332031 2.1875 11.160156 1.960938 C 10.640625 1.273438 9.882812 0.878906 9.078125 0.875 C 7.578125 0.875 6.351562 2.230469 6.347656 3.90625 C 6.347656 3.929688 6.347656 4.011719 6.359375 4.148438 C 6.378906 4.445312 6.4375 4.730469 6.535156 5.003906 C 6.964844 6.410156 8.175781 8.402344 11.507812 10.082031 C 11.785156 9.945312 12.042969 9.804688 12.292969 9.664062 C 12.507812 9.539062 12.789062 9.617188 12.910156 9.835938 C 13.035156 10.054688 12.960938 10.332031 12.742188 10.457031 C 12.410156 10.648438 12.0625 10.828125 11.707031 11.003906 C 11.640625 11.03125 11.574219 11.046875 11.507812 11.046875 Z M 11.507812 11.046875 " fill-opacity="1" fill-rule="nonzero"/></g></g></g></g></svg>