<svg xmlns="http://www.w3.org/2000/svg" xmlns:xlink="http://www.w3.org/1999/xlink" width="40" zoomAndPan="magnify" viewBox="0 0 30 30.000001" height="40" preserveAspectRatio="xMidYMid meet" version="1.0"><defs><clipPath id="c81c219871"><path d="M 0.484375 16 L 11 16 L 11 29.03125 L 0.484375 29.03125 Z M 0.484375 16 " clip-rule="nonzero"/></clipPath><clipPath id="c1f1c75401"><path d="M 0.929688 0 L 27.785156 0.0507812 L 27.730469 29.082031 L 0.875 29.03125 Z M 0.929688 0 " clip-rule="nonzero"/></clipPath><clipPath id="a3358ee899"><path d="M 0.929688 0 L 27.785156 0.0507812 L 27.730469 29.082031 L 0.875 29.03125 Z M 0.929688 0 " clip-rule="nonzero"/></clipPath><clipPath id="53d265138f"><path d="M 4 9 L 9 9 L 9 14 L 4 14 Z M 4 9 " clip-rule="nonzero"/></clipPath><clipPath id="1d23217c1b"><path d="M 0.929688 0 L 27.785156 0.0507812 L 27.730469 29.082031 L 0.875 29.03125 Z M 0.929688 0 " clip-rule="nonzero"/></clipPath><clipPath id="dd809128e5"><path d="M 0.929688 0 L 27.785156 0.0507812 L 27.730469 29.082031 L 0.875 29.03125 Z M 0.929688 0 " clip-rule="nonzero"/></clipPath><clipPath id="d582a8f179"><path d="M 3 14 L 14 14 L 14 28 L 3 28 Z M 3 14 " clip-rule="nonzero"/></clipPath><clipPath id="9a3a01b919"><path d="M 0.929688 0 L 27.785156 0.0507812 L 27.730469 29.082031 L 0.875 29.03125 Z M 0.929688 0 " clip-rule="nonzero"/></clipPath><clipPath id="adca78a190"><path d="M 0.929688 0 L 27.785156 0.0507812 L 27.730469 29.082031 L 0.875 29.03125 Z M 0.929688 0 " clip-rule="nonzero"/></clipPath><clipPath id="a3d743d741"><path d="M 18 16 L 28 16 L 28 29.03125 L 18 29.03125 Z M 18 16 " clip-rule="nonzero"/></clipPath><clipPath id="24c0a3bcc0"><path d="M 0.929688 0 L 27.785156 0.0507812 L 27.730469 29.082031 L 0.875 29.03125 Z M 0.929688 0 " clip-rule="nonzero"/></clipPath><clipPath id="0a79e3e638"><path d="M 0.929688 0 L 27.785156 0.0507812 L 27.730469 29.082031 L 0.875 29.03125 Z M 0.929688 0 " clip-rule="nonzero"/></clipPath><clipPath id="24db2eaf27"><path d="M 19 9 L 24 9 L 24 14 L 19 14 Z M 19 9 " clip-rule="nonzero"/></clipPath><clipPath id="7c08e086c3"><path d="M 0.929688 0 L 27.785156 0.0507812 L 27.730469 29.082031 L 0.875 29.03125 Z M 0.929688 0 " clip-rule="nonzero"/></clipPath><clipPath id="2c393d0a2b"><path d="M 0.929688 0 L 27.785156 0.0507812 L 27.730469 29.082031 L 0.875 29.03125 Z M 0.929688 0 " clip-rule="nonzero"/></clipPath><clipPath id="6b02e6e0d1"><path d="M 14 14 L 26 14 L 26 28 L 14 28 Z M 14 14 " clip-rule="nonzero"/></clipPath><clipPath id="89dac9109f"><path d="M 0.929688 0 L 27.785156 0.0507812 L 27.730469 29.082031 L 0.875 29.03125 Z M 0.929688 0 " clip-rule="nonzero"/></clipPath><clipPath id="2f8caad12e"><path d="M 0.929688 0 L 27.785156 0.0507812 L 27.730469 29.082031 L 0.875 29.03125 Z M 0.929688 0 " clip-rule="nonzero"/></clipPath><clipPath id="e0c0f63cdb"><path d="M 8 1 L 17 1 L 17 10 L 8 10 Z M 8 1 " clip-rule="nonzero"/></clipPath><clipPath id="4dbfa971a0"><path d="M 0.929688 0 L 27.785156 0.0507812 L 27.730469 29.082031 L 0.875 29.03125 Z M 0.929688 0 " clip-rule="nonzero"/></clipPath><clipPath id="9ec0800045"><path d="M 0.929688 0 L 27.785156 0.0507812 L 27.730469 29.082031 L 0.875 29.03125 Z M 0.929688 0 " clip-rule="nonzero"/></clipPath><clipPath id="3fcb91ffd9"><path d="M 15 0 L 22 0 L 22 9 L 15 9 Z M 15 0 " clip-rule="nonzero"/></clipPath><clipPath id="48a3de40a2"><path d="M 0.929688 0 L 27.785156 0.0507812 L 27.730469 29.082031 L 0.875 29.03125 Z M 0.929688 0 " clip-rule="nonzero"/></clipPath><clipPath id="04185458e0"><path d="M 0.929688 0 L 27.785156 0.0507812 L 27.730469 29.082031 L 0.875 29.03125 Z M 0.929688 0 " clip-rule="nonzero"/></clipPath></defs><g clip-path="url(#c81c219871)"><g clip-path="url(#c1f1c75401)"><g clip-path="url(#a3358ee899)"><path fill="#000000" d="M 10.136719 25.9375 L 10.148438 25.933594 L 10.054688 24.828125 L 5.742188 25.191406 C 4.488281 25.296875 3.339844 24.40625 3.136719 23.164062 L 2.066406 16.757812 C 2.015625 16.457031 1.730469 16.25 1.425781 16.300781 C 1.125 16.351562 0.917969 16.640625 0.96875 16.941406 L 2.039062 23.347656 C 2.300781 24.929688 3.605469 26.117188 5.148438 26.289062 L 4.84375 28.371094 C 4.800781 28.664062 4.988281 28.953125 5.28125 29.011719 C 5.320312 29.019531 5.355469 29.023438 5.390625 29.023438 C 5.664062 29.023438 5.902344 28.824219 5.941406 28.546875 L 6.277344 26.265625 L 9.027344 26.03125 L 9.386719 28.554688 C 9.425781 28.832031 9.660156 29.03125 9.933594 29.03125 C 9.96875 29.03125 10.007812 29.027344 10.042969 29.019531 C 10.335938 28.964844 10.527344 28.675781 10.484375 28.382812 L 10.136719 25.9375 " fill-opacity="1" fill-rule="nonzero"/></g></g></g><g clip-path="url(#53d265138f)"><g clip-path="url(#1d23217c1b)"><g clip-path="url(#dd809128e5)"><path fill="#000000" d="M 6.6875 13.425781 C 7.765625 13.425781 8.636719 12.554688 8.640625 11.480469 C 8.640625 10.402344 7.769531 9.53125 6.695312 9.527344 C 5.621094 9.527344 4.746094 10.394531 4.742188 11.472656 C 4.742188 12.546875 5.613281 13.421875 6.6875 13.425781 " fill-opacity="1" fill-rule="nonzero"/></g></g></g><g clip-path="url(#d582a8f179)"><g clip-path="url(#9a3a01b919)"><g clip-path="url(#adca78a190)"><path fill="#000000" d="M 12.285156 22.214844 C 12.144531 21.726562 11.714844 21.355469 11.179688 21.3125 L 7.128906 21.015625 C 7.046875 20.269531 7.015625 19.582031 7.023438 18.964844 L 9.878906 18.96875 C 10.207031 18.96875 10.476562 18.703125 10.476562 18.371094 C 10.476562 18.039062 10.210938 17.773438 9.878906 17.769531 L 7.757812 17.507812 C 7.667969 17.117188 7.574219 16.722656 7.484375 16.332031 C 7.285156 15.488281 7.140625 14.554688 6.164062 14.3125 C 4.25 13.835938 3.640625 16.316406 3.492188 17.699219 C 3.308594 19.445312 3.613281 21.21875 4.0625 22.902344 C 4.1875 23.367188 4.492188 23.734375 4.882812 23.953125 C 4.886719 23.953125 4.886719 23.957031 4.890625 23.957031 C 4.910156 23.96875 4.933594 23.980469 4.953125 23.988281 C 5.210938 24.121094 5.503906 24.191406 5.816406 24.167969 L 10.574219 23.835938 L 11.808594 27.359375 C 11.964844 27.800781 12.441406 28.054688 12.902344 27.925781 C 13.378906 27.792969 13.65625 27.296875 13.523438 26.816406 C 13.523438 26.816406 12.316406 22.332031 12.285156 22.214844 " fill-opacity="1" fill-rule="nonzero"/></g></g></g><g clip-path="url(#a3d743d741)"><g clip-path="url(#24c0a3bcc0)"><g clip-path="url(#0a79e3e638)"><path fill="#000000" d="M 27.132812 16.351562 C 26.832031 16.296875 26.542969 16.5 26.492188 16.804688 L 25.402344 23.207031 C 25.191406 24.449219 24.042969 25.332031 22.785156 25.222656 L 18.476562 24.84375 L 18.378906 25.949219 L 18.390625 25.953125 L 18.03125 28.394531 C 17.988281 28.691406 18.179688 28.976562 18.46875 29.035156 C 18.507812 29.042969 18.542969 29.046875 18.582031 29.046875 C 18.851562 29.046875 19.089844 28.847656 19.132812 28.570312 L 19.5 26.050781 L 22.246094 26.292969 L 22.574219 28.578125 C 22.613281 28.855469 22.851562 29.054688 23.121094 29.054688 C 23.160156 29.054688 23.195312 29.050781 23.234375 29.042969 C 23.523438 28.988281 23.714844 28.699219 23.671875 28.40625 L 23.375 26.324219 C 24.917969 26.15625 26.226562 24.972656 26.496094 23.394531 L 27.589844 16.992188 C 27.640625 16.6875 27.4375 16.402344 27.132812 16.351562 " fill-opacity="1" fill-rule="nonzero"/></g></g></g><g clip-path="url(#24db2eaf27)"><g clip-path="url(#7c08e086c3)"><g clip-path="url(#2c393d0a2b)"><path fill="#000000" d="M 19.9375 11.5 C 19.9375 12.578125 20.808594 13.449219 21.882812 13.453125 C 22.960938 13.453125 23.832031 12.582031 23.835938 11.507812 C 23.835938 10.429688 22.96875 9.558594 21.890625 9.554688 C 20.816406 9.554688 19.941406 10.425781 19.9375 11.5 " fill-opacity="1" fill-rule="nonzero"/></g></g></g><g clip-path="url(#6b02e6e0d1)"><g clip-path="url(#89dac9109f)"><g clip-path="url(#2f8caad12e)"><path fill="#000000" d="M 23.578125 24.023438 C 23.597656 24.011719 23.621094 24.003906 23.640625 23.992188 C 23.644531 23.988281 23.648438 23.988281 23.648438 23.984375 C 24.039062 23.769531 24.347656 23.402344 24.472656 22.9375 C 24.929688 21.257812 25.242188 19.484375 25.0625 17.738281 C 24.921875 16.355469 24.320312 13.871094 22.402344 14.34375 C 21.429688 14.582031 21.277344 15.515625 21.078125 16.355469 C 20.984375 16.75 20.890625 17.140625 20.796875 17.53125 L 18.675781 17.789062 C 18.34375 17.785156 18.078125 18.054688 18.078125 18.386719 C 18.074219 18.714844 18.34375 18.984375 18.675781 18.984375 L 21.527344 18.992188 C 21.535156 19.609375 21.5 20.296875 21.414062 21.042969 L 17.363281 21.324219 C 16.828125 21.363281 16.394531 21.734375 16.253906 22.222656 C 16.222656 22.335938 15 26.820312 15 26.820312 C 14.863281 27.296875 15.140625 27.796875 15.617188 27.929688 C 16.074219 28.0625 16.554688 27.808594 16.710938 27.367188 L 17.957031 23.851562 L 22.71875 24.199219 C 23.027344 24.222656 23.320312 24.15625 23.578125 24.023438 " fill-opacity="1" fill-rule="nonzero"/></g></g></g><g clip-path="url(#e0c0f63cdb)"><g clip-path="url(#4dbfa971a0)"><g clip-path="url(#9ec0800045)"><path fill="#000000" d="M 8.609375 8.894531 C 8.664062 8.90625 8.714844 8.921875 8.769531 8.941406 C 8.878906 8.964844 8.988281 8.980469 9.101562 8.992188 C 9.289062 9.011719 9.488281 9.003906 9.6875 8.980469 C 9.890625 8.953125 10.089844 8.902344 10.289062 8.835938 C 10.460938 8.773438 10.628906 8.703125 10.792969 8.625 C 11.535156 9.015625 12.410156 9.179688 13.300781 9.03125 C 15.480469 8.675781 16.957031 6.621094 16.597656 4.445312 C 16.242188 2.261719 14.171875 0.78125 11.984375 1.15625 C 9.835938 1.523438 8.367188 3.578125 8.714844 5.738281 C 8.828125 6.425781 9.117188 7.050781 9.523438 7.5625 C 9.46875 7.78125 9.382812 7.992188 9.257812 8.195312 C 9.175781 8.316406 9.082031 8.441406 8.964844 8.546875 C 8.855469 8.652344 8.726562 8.75 8.59375 8.835938 C 8.546875 8.859375 8.578125 8.886719 8.609375 8.894531 " fill-opacity="1" fill-rule="nonzero"/></g></g></g><g clip-path="url(#3fcb91ffd9)"><g clip-path="url(#48a3de40a2)"><g clip-path="url(#04185458e0)"><path fill="#000000" d="M 15.546875 1.273438 C 15.65625 1.355469 15.757812 1.441406 15.859375 1.53125 C 16.660156 0.867188 17.773438 0.613281 18.832031 0.953125 C 19.886719 1.292969 20.667969 2.140625 20.925781 3.226562 C 21.058594 3.78125 21.035156 4.363281 20.859375 4.910156 C 20.605469 5.707031 20.050781 6.359375 19.304688 6.742188 L 19.246094 6.777344 L 19.214844 6.808594 C 19.109375 6.925781 19.046875 7.070312 19.046875 7.230469 C 19.046875 7.351562 19.082031 7.464844 19.121094 7.578125 L 19.207031 7.824219 C 19.042969 7.761719 18.902344 7.691406 18.78125 7.613281 L 18.71875 7.574219 C 18.679688 7.546875 18.652344 7.53125 18.628906 7.511719 C 18.527344 7.441406 18.433594 7.363281 18.34375 7.28125 C 18.289062 7.21875 18.203125 7.164062 18.097656 7.117188 L 17.992188 7.085938 L 17.945312 7.085938 C 17.632812 7.097656 17.316406 7.054688 17.011719 6.972656 C 16.921875 7.171875 16.820312 7.367188 16.699219 7.554688 C 16.703125 7.554688 16.703125 7.554688 16.707031 7.554688 C 17.089844 7.679688 17.488281 7.738281 17.886719 7.738281 C 18.007812 7.851562 18.125 7.945312 18.246094 8.039062 C 18.292969 8.070312 18.332031 8.09375 18.371094 8.121094 L 18.425781 8.15625 C 18.636719 8.292969 18.890625 8.410156 19.1875 8.503906 L 19.214844 8.515625 C 19.519531 8.609375 19.734375 8.585938 19.875 8.441406 C 19.925781 8.394531 20.039062 8.246094 19.957031 8.011719 L 19.734375 7.367188 C 19.71875 7.324219 19.707031 7.292969 19.703125 7.265625 C 20.550781 6.796875 21.179688 6.03125 21.476562 5.109375 C 21.691406 4.449219 21.71875 3.746094 21.558594 3.074219 C 21.246094 1.769531 20.300781 0.746094 19.03125 0.335938 C 18.066406 0.0273438 17.042969 0.109375 16.140625 0.574219 C 15.84375 0.726562 15.578125 0.910156 15.339844 1.125 C 15.398438 1.164062 15.460938 1.207031 15.519531 1.253906 L 15.546875 1.273438 " fill-opacity="1" fill-rule="nonzero"/></g></g></g></svg>